PathFileType	4	(X/Y/Z)	C:/Users/opensim2020/Desktop/walking_exp_matlab/subject01/subject01_trc/subject01_walking17_run_cyclic.trc	
DataRate	CameraRate	NumFrames	NumMarkers	Units	OrigDataRate	OrigDataStartFrame	OrigNumFrames	
100.00	100.00	7	61	mm	100.00	332	58	
Frame#	Time	LTHI			LKNE			RELB			STRN			RWRA			LSHO			RFRM			RUPA			RSHO			RASI			RBHD			RFIN			LFHD			RFHD			CLAV			LHEE			RWRB			LASI			LBHD			LWRA			LTIB			RTHI			LWRB			LTOE			RKNE			C7			LFRM			LFIN			LUPA			LELB			RTIB			RTOE			RBAK			RANK			T10			LPSI			LANK			RHEE			RPSI			*39			*40			*41			*42			*43			*44			*45			*46			*47			*48			*49			*50			*51			*52			*53			*54			*55			*56			*57			*58			*59			*60			
		X1	Y1	Z1	X2	Y2	Z2	X3	Y3	Z3	X4	Y4	Z4	X5	Y5	Z5	X6	Y6	Z6	X7	Y7	Z7	X8	Y8	Z8	X9	Y9	Z9	X10	Y10	Z10	X11	Y11	Z11	X12	Y12	Z12	X13	Y13	Z13	X14	Y14	Z14	X15	Y15	Z15	X16	Y16	Z16	X17	Y17	Z17	X18	Y18	Z18	X19	Y19	Z19	X20	Y20	Z20	X21	Y21	Z21	X22	Y22	Z22	X23	Y23	Z23	X24	Y24	Z24	X25	Y25	Z25	X26	Y26	Z26	X27	Y27	Z27	X28	Y28	Z28	X29	Y29	Z29	X30	Y30	Z30	X31	Y31	Z31	X32	Y32	Z32	X33	Y33	Z33	X34	Y34	Z34	X35	Y35	Z35	X36	Y36	Z36	X37	Y37	Z37	X38	Y38	Z38	X39	Y39	Z39	X40	Y40	Z40	X41	Y41	Z41	X42	Y42	Z42	X43	Y43	Z43	X44	Y44	Z44	X45	Y45	Z45	X46	Y46	Z46	X47	Y47	Z47	X48	Y48	Z48	X49	Y49	Z49	X50	Y50	Z50	X51	Y51	Z51	X52	Y52	Z52	X53	Y53	Z53	X54	Y54	Z54	X55	Y55	Z55	X56	Y56	Z56	X57	Y57	Z57	X58	Y58	Z58	X59	Y59	Z59	X60	Y60	Z60	X61	Y61	Z61	

49	0.480	-593.08417	872.12012	586.34869	-573.48346	911.03998	460.47845	-99.84572	686.86938	1029.26538	-411.82523	877.05780	1152.96765	-211.31912	882.74982	919.84705	-560.69446	792.59375	1346.25745	-126.69448	778.26080	941.23877	-134.45236	699.67786	1154.32605	-247.15581	786.08325	1326.20911	-310.62451	775.88422	895.98431	-313.46854	728.77020	1569.42358	-197.57167	947.52850	876.84302	-453.24731	803.69244	1628.61438	-343.23541	830.27338	1638.53455	-399.29291	845.54791	1310.62842	-465.28674	505.94394	375.55643	-170.98380	876.53455	877.90765	-522.05878	780.68658	885.00494	-429.77118	702.42731	1562.21899	-636.28290	802.45624	916.30249	-576.44598	747.17975	403.81818	-266.39249	801.92957	569.70911	-680.58093	774.99097	885.85309	-532.16931	532.18512	193.23840	-303.44070	851.09259	414.49051	-397.47479	705.12067	1388.15332	-717.35931	716.86792	987.60095	-656.98065	843.87805	852.39972	-676.75330	709.64337	1217.83960	-736.16663	647.49780	1091.77930	-292.40475	747.30658	264.72083	-362.92801	767.77948	37.66122	-330.64987	628.25635	1201.66418	-343.38428	640.30713	86.46767	-411.92447	632.10516	1105.83008	-487.16144	599.59552	903.94135	-521.48419	541.36115	345.00220	-389.22244	575.14270	64.34907	-346.48843	592.27728	906.96271	-3101.86670	1973.01636	1023.51740	-3140.79053	2012.45422	1022.04785				-362.18207	805.31305	1667.70715																																																						 
50	0.490	-593.31708	935.88837	602.94940	-572.85522	983.26648	479.83112	-106.51092	749.08679	1025.64478	-415.17371	920.72687	1154.18005	-227.13863	948.37994	935.20447	-561.00311	834.70886	1348.63123	-138.84366	845.94513	946.30817	-137.65825	755.62054	1151.81848	-248.68098	834.24652	1328.63416	-308.04245	818.14905	895.31531	-313.21469	774.58795	1570.29907	-216.43378	1016.55048	896.59467	-453.03058	848.82758	1630.19214	-343.22226	876.13312	1639.47290	-401.64185	889.74573	1311.80212	-466.96622	583.43463	357.74518	-187.95934	946.87433	892.27002	-521.85809	825.81512	889.72314	-429.41000	747.42352	1563.81396	-655.91528	825.46503	914.28876	-576.58917	825.66901	407.20792	-267.35880	832.30072	561.96057	-699.50208	793.14551	888.20691	-533.43994	629.42084	179.76318	-300.34207	868.03162	404.39011	-397.11371	748.13818	1389.21619	-727.56702	740.01227	995.02734	-682.44031	860.81165	849.25781	-676.44238	744.17218	1225.19739	-736.88501	676.00861	1105.00903	-293.91513	758.69806	260.18994	-362.96768	767.08746	37.45838	-330.51007	674.05298	1202.47034	-343.34906	642.57074	91.94839	-411.96524	675.61169	1107.88989	-486.78516	643.59882	908.86078	-523.02521	622.90790	330.31036	-389.38968	576.67657	74.39863	-346.87097	637.06842	911.58380	-3102.00269	1973.14905	1023.57648	-3140.73389	2012.48279	1022.12396				-361.52988	851.71594	1668.81152																																																						 
51	0.500	-592.79376	996.58325	620.83356	-572.67456	1051.76184	501.19904	-113.54816	809.18323	1025.25867	-418.91617	963.59344	1156.39148	-242.75914	1011.23016	954.36591	-562.13885	875.93469	1352.17517	-151.99028	910.12585	953.65698	-140.87201	810.57849	1152.08264	-250.22238	881.86487	1332.74622	-307.79437	861.88214	896.07190	-313.64499	820.41296	1572.94299	-234.76384	1082.04834	920.08752	-453.56659	894.32391	1633.13660	-343.83420	922.29602	1641.60327	-404.63092	933.84363	1314.26172	-467.59915	662.96606	337.68497	-206.09431	1013.53052	910.15692	-522.31116	869.90717	895.78070	-429.67392	792.53644	1567.30591	-673.62946	849.28943	917.02979	-576.32587	902.61151	411.52335	-268.26025	858.39996	556.65466	-716.34680	813.25885	894.56702	-533.28625	729.04724	166.13506	-297.70584	883.92035	397.91211	-397.12823	790.39612	1390.58728	-736.66425	763.68677	1004.68365	-704.46155	879.82721	851.17273	-675.92255	778.68152	1233.75171	-736.93866	704.82758	1118.36731	-294.65585	772.63177	262.73212	-363.25320	766.80859	37.35312	-330.27957	719.98346	1204.45654	-343.80038	645.86005	100.11496	-412.28036	718.62372	1111.24622	-485.77591	688.11530	913.06573	-523.49359	705.83441	314.01489	-389.95557	580.26678	87.39429	-345.30786	682.67322	915.65839	-3102.00879	1973.10425	1023.50299	-3140.76538	2012.49023	1022.17542				-361.72180	898.76819	1670.94739																																																						 
52	0.510	-591.29993	1054.82874	639.47009	-571.44470	1116.58472	522.97601	-120.31351	867.65662	1027.06836	-423.02618	1007.00714	1160.04065	-257.84674	1070.58398	976.17633	-564.11151	916.35016	1356.68811	-164.89336	971.99817	963.24878	-143.53600	864.88403	1154.28906	-252.16956	929.20227	1338.08655	-307.88187	907.64795	897.89349	-314.44028	866.35760	1577.05896	-252.61412	1143.58997	945.82422	-454.39996	940.04413	1636.83423	-344.98227	968.78265	1644.67432	-408.05814	977.71814	1317.94006	-467.23776	745.01117	316.12140	-224.18398	1076.27893	930.29968	-522.75281	914.76849	903.29315	-430.26169	837.81738	1572.22986	-689.16949	874.13403	922.99194	-576.20880	976.55615	416.76810	-268.27112	883.06653	556.21466	-730.87817	835.60205	903.89771	-532.59692	830.01990	153.16211	-297.04901	904.33734	398.15604	-397.17566	833.00000	1393.71667	-744.13940	788.42920	1015.99213	-722.87219	901.29871	856.60974	-675.36969	813.33661	1243.22192	-736.66205	734.15088	1131.74487	-294.21121	786.08936	269.24048	-363.30801	766.88391	37.21840	-329.39255	765.99915	1207.68030	-343.11844	652.23035	111.58762	-412.32410	762.81592	1114.70056	-484.52676	733.34235	917.01141	-523.25873	790.56799	296.92416	-390.18109	586.08997	102.23690	-343.46497	729.06818	918.86853	-3101.91040	1973.05688	1023.45148	-3140.77686	2012.49646	1022.15454				-362.76453	946.24475	1673.96252																																																						 
53	0.520	-589.44287	1110.89771	658.35449	-570.82111	1177.84387	544.90662	-126.53791	925.12030	1030.46057	-427.12659	1050.60645	1165.04285	-271.74323	1126.51331	999.50873	-566.28790	956.14044	1362.27173	-178.13849	1031.17041	974.74835	-145.74017	918.64276	1157.96606	-254.92526	976.15076	1344.09448	-310.07516	953.95251	900.05157	-315.80209	912.22705	1582.09521	-270.07477	1201.55786	972.90558	-456.01944	986.05768	1641.40393	-346.67642	1015.18579	1648.45300	-411.76193	1021.35706	1322.54187	-465.69754	830.28412	292.75180	-241.72954	1135.14868	951.90436	-522.49786	959.89374	910.60510	-431.55463	883.09955	1578.00964	-702.05450	900.69751	931.39728	-575.51434	1047.27527	422.19333	-267.75778	911.39490	559.61084	-743.10461	860.27686	915.30426	-531.78784	932.25702	141.64575	-297.21884	927.03491	400.03860	-397.41232	876.87878	1398.33545	-749.93988	814.69598	1028.45911	-738.46411	925.13141	864.87024	-675.15698	848.36627	1253.09509	-736.23932	764.18164	1144.82422	-293.19604	799.82172	276.79276	-363.34918	767.35913	37.14467	-327.48236	812.19702	1211.91687	-341.73785	660.32629	123.72115	-411.87692	807.93140	1118.84045	-482.88037	779.16266	921.02124	-522.20837	877.03412	279.64520	-388.80219	595.39905	119.37413	-341.52576	775.84039	921.71106	-3102.01563	1972.98816	1023.95270	-3140.80835	2012.47986	1022.10962				-364.60635	993.58423	1678.01624																																																						 
54	0.530	-588.31464	1164.45837	676.33173	-569.85956	1235.15698	564.98798	-132.35429	981.09003	1035.21484	-431.42856	1094.16370	1170.96814	-284.64297	1179.23560	1023.37244	-568.64178	995.69537	1368.50989	-190.31427	1088.36755	987.66034	-147.87726	971.91736	1163.12146	-258.28784	1022.70734	1350.44238	-310.34546	1001.77124	902.78815	-317.55417	958.00671	1587.75977	-287.62463	1255.67383	1000.78394	-457.92145	1032.18408	1646.58679	-348.72943	1061.51465	1652.83667	-415.75848	1065.01343	1327.88220	-463.92752	917.44824	269.45410	-258.15189	1191.07031	974.42249	-522.81488	1006.50427	918.30603	-433.40622	928.36517	1584.48145	-713.01117	928.91663	941.27496	-574.63928	1115.49768	426.68207	-267.08420	944.79816	565.71558	-752.74976	886.91724	927.55627	-530.19598	1035.65161	131.67952	-296.75046	950.81848	402.68420	-398.15125	921.53711	1403.80225	-754.31958	843.17255	1041.74756	-751.64648	950.99847	874.94421	-675.40106	884.00916	1263.47986	-735.37946	795.73987	1157.58472	-292.19922	815.69080	286.54654	-363.02271	768.55035	37.18626	-324.90753	859.12610	1216.89368	-339.02753	671.79681	136.71083	-411.01547	853.78461	1123.11633	-481.49179	825.24957	925.00916	-520.77991	965.04846	262.78897	-386.00754	608.65802	138.23584	-339.59140	822.86041	924.56689	-3102.00366	1973.20459	1023.53516	-3140.70679	2012.58777	1022.16840				-366.87912	1040.42932	1682.85339																																																						 
55	0.540	-588.02972	1215.73193	692.37421	-569.15564	1288.23572	581.61359	-137.87320	1036.28455	1040.80896	-435.98752	1137.68726	1177.54041	-296.68646	1228.70886	1047.15967	-571.01093	1035.55261	1374.99084	-201.71681	1143.43555	1001.48370	-150.24504	1024.50012	1169.69836	-262.18106	1068.65149	1357.03601	-311.80881	1049.70386	906.47717	-319.87549	1003.49567	1593.94312	-304.72995	1306.18921	1029.13928	-460.16034	1078.34204	1652.08887	-351.08496	1107.49121	1657.40918	-419.84271	1108.58496	1333.81396	-462.34076	1006.75262	247.02480	-273.15399	1244.04382	997.64191	-522.86902	1053.33411	925.65247	-435.58456	973.67328	1591.39917	-721.63275	958.87494	952.35327	-574.25861	1181.68726	429.15656	-266.18463	980.82880	571.48547	-759.72778	915.06879	939.99988	-528.38702	1139.52832	123.51425	-294.88599	975.59833	407.38599	-399.07327	966.13190	1409.62366	-757.39844	873.88446	1055.08655	-762.31598	978.84406	885.75067	-675.88562	920.65887	1274.21094	-734.42529	829.14716	1169.96497	-289.43146	835.81091	298.17609	-362.83224	770.02594	36.70173	-322.33127	906.26019	1222.16736	-335.24557	687.04102	150.67316	-409.78870	900.10492	1127.38196	-480.38910	871.64276	929.13330	-519.54419	1054.25208	245.87041	-382.09378	626.82092	157.40503	-337.97055	870.83704	928.01202	-3101.94873	1973.02930	1023.34589	-3140.68140	2012.56018	1021.99011				-369.18350	1087.25012	1688.45020																																																						 
